# MagicaVoxel @ Ephtracy

# group
o 

# material
mtllib head1.mtl
usemtl palette

# normals
vn -1 0 0
vn 1 0 0
vn 0 0 1
vn 0 0 -1
vn 0 -1 0
vn 0 1 0

# texcoords
vt 0.0175781 0.5
vt 0.0332031 0.5
vt 0.373047 0.5
vt 0.958984 0.5
vt 0.994141 0.5

# verts
v -0.6 0.2 -0.2
v -0.6 0.2 -0.3
v -0.6 0.3 0.1
v -0.6 0.3 5.96046e-08
v -0.6 0.4 0.2
v -0.6 0.4 0.1
v -0.6 0.5 -0.1
v -0.6 0.5 -0.2
v -0.6 0.6 0.3
v -0.6 0.6 0.2
v -0.6 0.6 5.96046e-08
v -0.6 0.6 -0.1
v -0.6 0.9 0.3
v -0.6 0.9 -0.3
v -0.5 0.1 0.4
v -0.5 0.1 -0.3
v -0.5 0.1 -0.4
v -0.5 0.2 0.6
v -0.5 0.2 0.5
v -0.5 0.2 -0.2
v -0.5 0.2 -0.3
v -0.5 0.3 0.5
v -0.5 0.3 0.4
v -0.5 0.3 0.1
v -0.5 0.3 5.96046e-08
v -0.5 0.4 0.4
v -0.5 0.4 0.3
v -0.5 0.4 0.2
v -0.5 0.4 0.1
v -0.5 0.5 -0.1
v -0.5 0.5 -0.2
v -0.5 0.6 0.3
v -0.5 0.6 0.2
v -0.5 0.6 5.96046e-08
v -0.5 0.6 -0.1
v -0.5 0.9 0.6
v -0.5 0.9 0.4
v -0.5 0.9 0.3
v -0.5 0.9 -0.3
v -0.5 0.9 -0.4
v -0.5 1 0.4
v -0.5 1 -0.3
v -0.4 0 0.4
v -0.4 0 -0.4
v -0.4 0.1 0.5
v -0.4 0.1 0.4
v -0.4 0.1 -0.3
v -0.4 0.1 -0.4
v -0.4 0.1 -0.5
v -0.4 0.2 0.5
v -0.4 0.2 0.4
v -0.4 0.2 -0.4
v -0.4 0.2 -0.5
v -0.4 0.3 0.5
v -0.4 0.3 0.4
v -0.4 0.9 0.6
v -0.4 0.9 0.4
v -0.4 0.9 -0.3
v -0.4 0.9 -0.4
v -0.4 0.9 -0.5
v -0.4 1 0.6
v -0.4 1 0.5
v -0.4 1 0.4
v -0.4 1 -0.2
v -0.4 1 -0.3
v -0.4 1 -0.4
v -0.4 1.1 0.5
v -0.4 1.1 -0.2
v -0.3 0 0.5
v -0.3 0 0.4
v -0.3 0 -0.4
v -0.3 0 -0.5
v -0.3 0.1 0.5
v -0.3 0.1 0.4
v -0.3 0.1 -0.4
v -0.3 0.1 -0.5
v -0.3 0.2 -0.5
v -0.3 0.2 -0.6
v -0.3 0.8 -0.5
v -0.3 0.8 -0.6
v -0.3 0.9 -0.4
v -0.3 0.9 -0.5
v -0.3 1 -0.2
v -0.3 1 -0.3
v -0.3 1 -0.4
v -0.3 1 -0.5
v -0.3 1.1 -0.2
v -0.3 1.1 -0.3
v -0.2 0.1 -0.5
v -0.2 0.1 -0.6
v -0.2 0.2 -0.5
v -0.2 0.2 -0.6
v -0.2 0.8 -0.5
v -0.2 0.8 -0.6
v -0.2 0.9 -0.5
v -0.2 0.9 -0.6
v 0.1 0.6 0.6
v 0.1 0.6 0.5
v 0.1 1 0.6
v 0.1 1 0.5
v 0.2 0.5 0.6
v 0.2 0.5 0.5
v 0.2 0.6 0.6
v 0.2 0.6 0.5
v 0.3 0.3 0.6
v 0.3 0.3 0.5
v 0.3 0.4 0.5
v 0.3 0.5 0.6
v 0.3 0.5 0.5
v 0.4 0.2 0.6
v 0.4 0.2 0.5
v 0.4 0.3 0.6
v 0.4 0.3 0.5
v -0.4 0.2 0.6
v -0.4 0.2 0.5
v -0.4 0.3 0.6
v -0.4 0.3 0.5
v -0.3 0.3 0.6
v -0.3 0.3 0.5
v -0.3 0.4 0.5
v -0.3 0.5 0.6
v -0.3 0.5 0.5
v -0.2 0.5 0.6
v -0.2 0.5 0.5
v -0.2 0.6 0.6
v -0.2 0.6 0.5
v -0.1 0.6 0.6
v -0.1 0.6 0.5
v -0.1 1 0.6
v -0.1 1 0.5
v 0.2 0.1 -0.5
v 0.2 0.1 -0.6
v 0.2 0.2 -0.5
v 0.2 0.2 -0.6
v 0.2 0.8 -0.5
v 0.2 0.8 -0.6
v 0.2 0.9 -0.5
v 0.2 0.9 -0.6
v 0.3 0 0.5
v 0.3 0 0.4
v 0.3 0 -0.4
v 0.3 0 -0.5
v 0.3 0.1 0.5
v 0.3 0.1 0.4
v 0.3 0.1 -0.4
v 0.3 0.1 -0.5
v 0.3 0.2 -0.5
v 0.3 0.2 -0.6
v 0.3 0.8 -0.5
v 0.3 0.8 -0.6
v 0.3 0.9 -0.4
v 0.3 0.9 -0.5
v 0.3 1 -0.2
v 0.3 1 -0.3
v 0.3 1 -0.4
v 0.3 1 -0.5
v 0.3 1.1 -0.2
v 0.3 1.1 -0.3
v 0.4 0 0.4
v 0.4 0 -0.4
v 0.4 0.1 0.5
v 0.4 0.1 0.4
v 0.4 0.1 -0.3
v 0.4 0.1 -0.4
v 0.4 0.1 -0.5
v 0.4 0.2 0.5
v 0.4 0.2 0.4
v 0.4 0.2 -0.4
v 0.4 0.2 -0.5
v 0.4 0.3 0.5
v 0.4 0.3 0.4
v 0.4 0.9 0.6
v 0.4 0.9 0.4
v 0.4 0.9 -0.3
v 0.4 0.9 -0.4
v 0.4 0.9 -0.5
v 0.4 1 0.6
v 0.4 1 0.5
v 0.4 1 0.4
v 0.4 1 -0.2
v 0.4 1 -0.3
v 0.4 1 -0.4
v 0.4 1.1 0.5
v 0.4 1.1 -0.2
v 0.5 0.1 0.4
v 0.5 0.1 -0.3
v 0.5 0.1 -0.4
v 0.5 0.2 0.6
v 0.5 0.2 0.5
v 0.5 0.2 -0.2
v 0.5 0.2 -0.3
v 0.5 0.3 0.5
v 0.5 0.3 0.4
v 0.5 0.3 0.1
v 0.5 0.3 5.96046e-08
v 0.5 0.4 0.4
v 0.5 0.4 0.3
v 0.5 0.4 0.2
v 0.5 0.4 0.1
v 0.5 0.5 -0.1
v 0.5 0.5 -0.2
v 0.5 0.6 0.3
v 0.5 0.6 0.2
v 0.5 0.6 5.96046e-08
v 0.5 0.6 -0.1
v 0.5 0.9 0.6
v 0.5 0.9 0.4
v 0.5 0.9 0.3
v 0.5 0.9 -0.3
v 0.5 0.9 -0.4
v 0.5 1 0.4
v 0.5 1 -0.3
v 0.6 0.2 -0.2
v 0.6 0.2 -0.3
v 0.6 0.3 0.1
v 0.6 0.3 5.96046e-08
v 0.6 0.4 0.2
v 0.6 0.4 0.1
v 0.6 0.5 -0.1
v 0.6 0.5 -0.2
v 0.6 0.6 0.3
v 0.6 0.6 0.2
v 0.6 0.6 5.96046e-08
v 0.6 0.6 -0.1
v 0.6 0.9 0.3
v 0.6 0.9 -0.3
v -0.5 0.2 0.6
v -0.5 0.9 0.6
v -0.4 0.2 0.6
v -0.4 0.3 0.6
v -0.4 0.9 0.6
v -0.4 1 0.6
v -0.3 0.3 0.6
v -0.3 0.5 0.6
v -0.2 0.5 0.6
v -0.2 0.6 0.6
v -0.1 0.6 0.6
v -0.1 1 0.6
v 0.1 0.6 0.6
v 0.1 1 0.6
v 0.2 0.5 0.6
v 0.2 0.6 0.6
v 0.3 0.3 0.6
v 0.3 0.5 0.6
v 0.4 0.2 0.6
v 0.4 0.3 0.6
v 0.4 0.9 0.6
v 0.4 1 0.6
v 0.5 0.2 0.6
v 0.5 0.9 0.6
v -0.4 0.1 0.5
v -0.4 0.2 0.5
v -0.4 0.3 0.5
v -0.4 1 0.5
v -0.4 1.1 0.5
v -0.3 0 0.5
v -0.3 0.1 0.5
v -0.3 0.2 0.5
v -0.3 0.3 0.5
v -0.3 0.4 0.5
v -0.3 0.5 0.5
v -0.2 0.2 0.5
v -0.2 0.4 0.5
v -0.2 0.5 0.5
v -0.2 0.6 0.5
v -0.1 0.6 0.5
v -0.1 1 0.5
v 0.1 0.6 0.5
v 0.1 1 0.5
v 0.2 0.2 0.5
v 0.2 0.4 0.5
v 0.2 0.5 0.5
v 0.2 0.6 0.5
v 0.3 0 0.5
v 0.3 0.1 0.5
v 0.3 0.2 0.5
v 0.3 0.3 0.5
v 0.3 0.4 0.5
v 0.3 0.5 0.5
v 0.4 0.1 0.5
v 0.4 0.2 0.5
v 0.4 0.3 0.5
v 0.4 1 0.5
v 0.4 1.1 0.5
v -0.5 0.1 0.4
v -0.5 0.3 0.4
v -0.5 0.9 0.4
v -0.5 1 0.4
v -0.4 0 0.4
v -0.4 0.1 0.4
v -0.4 0.2 0.4
v -0.4 0.3 0.4
v -0.4 0.9 0.4
v -0.4 1 0.4
v -0.3 0 0.4
v -0.3 0.1 0.4
v 0.3 0 0.4
v 0.3 0.1 0.4
v 0.4 0 0.4
v 0.4 0.1 0.4
v 0.4 0.2 0.4
v 0.4 0.3 0.4
v 0.4 0.9 0.4
v 0.4 1 0.4
v 0.5 0.1 0.4
v 0.5 0.3 0.4
v 0.5 0.9 0.4
v 0.5 1 0.4
v -0.6 0.6 0.3
v -0.6 0.9 0.3
v -0.5 0.6 0.3
v -0.5 0.9 0.3
v 0.5 0.6 0.3
v 0.5 0.9 0.3
v 0.6 0.6 0.3
v 0.6 0.9 0.3
v -0.6 0.4 0.2
v -0.6 0.6 0.2
v -0.5 0.4 0.2
v -0.5 0.6 0.2
v 0.5 0.4 0.2
v 0.5 0.6 0.2
v 0.6 0.4 0.2
v 0.6 0.6 0.2
v -0.6 0.3 0.1
v -0.6 0.4 0.1
v -0.5 0.3 0.1
v -0.5 0.4 0.1
v 0.5 0.3 0.1
v 0.5 0.4 0.1
v 0.6 0.3 0.1
v 0.6 0.4 0.1
v -0.6 0.5 -0.1
v -0.6 0.6 -0.1
v -0.5 0.5 -0.1
v -0.5 0.6 -0.1
v 0.5 0.5 -0.1
v 0.5 0.6 -0.1
v 0.6 0.5 -0.1
v 0.6 0.6 -0.1
v -0.6 0.2 -0.2
v -0.6 0.5 -0.2
v -0.5 0.2 -0.2
v -0.5 0.5 -0.2
v 0.5 0.2 -0.2
v 0.5 0.5 -0.2
v 0.6 0.2 -0.2
v 0.6 0.5 -0.2
v -0.5 0.2 0.5
v -0.5 0.3 0.5
v -0.4 0.2 0.5
v -0.4 0.3 0.5
v 0.4 0.2 0.5
v 0.4 0.3 0.5
v 0.5 0.2 0.5
v 0.5 0.3 0.5
v -0.6 0.3 5.96046e-08
v -0.6 0.6 5.96046e-08
v -0.5 0.3 5.96046e-08
v -0.5 0.6 5.96046e-08
v 0.5 0.3 5.96046e-08
v 0.5 0.6 5.96046e-08
v 0.6 0.3 5.96046e-08
v 0.6 0.6 5.96046e-08
v -0.4 1 -0.2
v -0.4 1.1 -0.2
v -0.3 1 -0.2
v -0.3 1.1 -0.2
v 0.3 1 -0.2
v 0.3 1.1 -0.2
v 0.4 1 -0.2
v 0.4 1.1 -0.2
v -0.6 0.2 -0.3
v -0.6 0.9 -0.3
v -0.5 0.2 -0.3
v -0.5 0.9 -0.3
v -0.5 1 -0.3
v -0.4 0.9 -0.3
v -0.4 1 -0.3
v -0.3 1 -0.3
v -0.3 1.1 -0.3
v 0.3 1 -0.3
v 0.3 1.1 -0.3
v 0.4 0.9 -0.3
v 0.4 1 -0.3
v 0.5 0.2 -0.3
v 0.5 0.9 -0.3
v 0.5 1 -0.3
v 0.6 0.2 -0.3
v 0.6 0.9 -0.3
v -0.5 0.1 -0.4
v -0.5 0.9 -0.4
v -0.4 0 -0.4
v -0.4 0.1 -0.4
v -0.4 0.2 -0.4
v -0.4 0.9 -0.4
v -0.4 1 -0.4
v -0.3 0 -0.4
v -0.3 0.1 -0.4
v -0.3 0.9 -0.4
v -0.3 1 -0.4
v 0.3 0 -0.4
v 0.3 0.1 -0.4
v 0.3 0.9 -0.4
v 0.3 1 -0.4
v 0.4 0 -0.4
v 0.4 0.1 -0.4
v 0.4 0.2 -0.4
v 0.4 0.9 -0.4
v 0.4 1 -0.4
v 0.5 0.1 -0.4
v 0.5 0.9 -0.4
v -0.4 0.1 -0.5
v -0.4 0.2 -0.5
v -0.4 0.9 -0.5
v -0.3 0 -0.5
v -0.3 0.1 -0.5
v -0.3 0.2 -0.5
v -0.3 0.8 -0.5
v -0.3 0.9 -0.5
v -0.3 1 -0.5
v -0.2 0.1 -0.5
v -0.2 0.2 -0.5
v -0.2 0.8 -0.5
v -0.2 0.9 -0.5
v 0.2 0.1 -0.5
v 0.2 0.2 -0.5
v 0.2 0.8 -0.5
v 0.2 0.9 -0.5
v 0.3 0 -0.5
v 0.3 0.1 -0.5
v 0.3 0.2 -0.5
v 0.3 0.8 -0.5
v 0.3 0.9 -0.5
v 0.3 1 -0.5
v 0.4 0.1 -0.5
v 0.4 0.2 -0.5
v 0.4 0.9 -0.5
v -0.3 0.2 -0.6
v -0.3 0.8 -0.6
v -0.2 0.1 -0.6
v -0.2 0.2 -0.6
v -0.2 0.8 -0.6
v -0.2 0.9 -0.6
v 0.2 0.1 -0.6
v 0.2 0.2 -0.6
v 0.2 0.8 -0.6
v 0.2 0.9 -0.6
v 0.3 0.2 -0.6
v 0.3 0.8 -0.6
v -0.3 0 0.5
v 0.3 0 0.5
v -0.4 0 0.4
v -0.3 0 0.4
v 0.3 0 0.4
v 0.4 0 0.4
v -0.4 0 -0.4
v -0.3 0 -0.4
v 0.3 0 -0.4
v 0.4 0 -0.4
v -0.3 0 -0.5
v 0.3 0 -0.5
v -0.4 0.1 0.5
v -0.3 0.1 0.5
v 0.3 0.1 0.5
v 0.4 0.1 0.5
v -0.5 0.1 0.4
v -0.4 0.1 0.4
v -0.3 0.1 0.4
v 0.3 0.1 0.4
v 0.4 0.1 0.4
v 0.5 0.1 0.4
v -0.5 0.1 -0.3
v -0.4 0.1 -0.3
v 0.4 0.1 -0.3
v 0.5 0.1 -0.3
v -0.5 0.1 -0.4
v -0.4 0.1 -0.4
v -0.3 0.1 -0.4
v 0.3 0.1 -0.4
v 0.4 0.1 -0.4
v 0.5 0.1 -0.4
v -0.4 0.1 -0.5
v -0.3 0.1 -0.5
v -0.2 0.1 -0.5
v 0.2 0.1 -0.5
v 0.3 0.1 -0.5
v 0.4 0.1 -0.5
v -0.2 0.1 -0.6
v 0.2 0.1 -0.6
v -0.5 0.2 0.6
v -0.4 0.2 0.6
v 0.4 0.2 0.6
v 0.5 0.2 0.6
v -0.5 0.2 0.5
v -0.4 0.2 0.5
v 0.4 0.2 0.5
v 0.5 0.2 0.5
v -0.6 0.2 -0.2
v -0.5 0.2 -0.2
v 0.5 0.2 -0.2
v 0.6 0.2 -0.2
v -0.6 0.2 -0.3
v -0.5 0.2 -0.3
v 0.5 0.2 -0.3
v 0.6 0.2 -0.3
v -0.3 0.2 -0.5
v -0.2 0.2 -0.5
v 0.2 0.2 -0.5
v 0.3 0.2 -0.5
v -0.3 0.2 -0.6
v -0.2 0.2 -0.6
v 0.2 0.2 -0.6
v 0.3 0.2 -0.6
v -0.4 0.3 0.6
v -0.3 0.3 0.6
v 0.3 0.3 0.6
v 0.4 0.3 0.6
v -0.5 0.3 0.5
v -0.4 0.3 0.5
v -0.3 0.3 0.5
v 0.3 0.3 0.5
v 0.4 0.3 0.5
v 0.5 0.3 0.5
v -0.5 0.3 0.4
v -0.4 0.3 0.4
v 0.4 0.3 0.4
v 0.5 0.3 0.4
v -0.6 0.3 0.1
v -0.5 0.3 0.1
v 0.5 0.3 0.1
v 0.6 0.3 0.1
v -0.6 0.3 5.96046e-08
v -0.5 0.3 5.96046e-08
v 0.5 0.3 5.96046e-08
v 0.6 0.3 5.96046e-08
v -0.6 0.4 0.2
v -0.5 0.4 0.2
v 0.5 0.4 0.2
v 0.6 0.4 0.2
v -0.6 0.4 0.1
v -0.5 0.4 0.1
v 0.5 0.4 0.1
v 0.6 0.4 0.1
v -0.3 0.5 0.6
v -0.2 0.5 0.6
v 0.2 0.5 0.6
v 0.3 0.5 0.6
v -0.3 0.5 0.5
v -0.2 0.5 0.5
v 0.2 0.5 0.5
v 0.3 0.5 0.5
v -0.6 0.5 -0.1
v -0.5 0.5 -0.1
v 0.5 0.5 -0.1
v 0.6 0.5 -0.1
v -0.6 0.5 -0.2
v -0.5 0.5 -0.2
v 0.5 0.5 -0.2
v 0.6 0.5 -0.2
v -0.2 0.6 0.6
v -0.1 0.6 0.6
v 0.1 0.6 0.6
v 0.2 0.6 0.6
v -0.2 0.6 0.5
v -0.1 0.6 0.5
v 0.1 0.6 0.5
v 0.2 0.6 0.5
v -0.6 0.6 0.3
v -0.5 0.6 0.3
v 0.5 0.6 0.3
v 0.6 0.6 0.3
v -0.6 0.6 0.2
v -0.5 0.6 0.2
v 0.5 0.6 0.2
v 0.6 0.6 0.2
v -0.6 0.6 5.96046e-08
v -0.5 0.6 5.96046e-08
v 0.5 0.6 5.96046e-08
v 0.6 0.6 5.96046e-08
v -0.6 0.6 -0.1
v -0.5 0.6 -0.1
v 0.5 0.6 -0.1
v 0.6 0.6 -0.1
v -0.3 0.8 -0.5
v -0.2 0.8 -0.5
v 0.2 0.8 -0.5
v 0.3 0.8 -0.5
v -0.3 0.8 -0.6
v -0.2 0.8 -0.6
v 0.2 0.8 -0.6
v 0.3 0.8 -0.6
v -0.5 0.9 0.6
v -0.4 0.9 0.6
v 0.4 0.9 0.6
v 0.5 0.9 0.6
v -0.5 0.9 0.4
v -0.4 0.9 0.4
v 0.4 0.9 0.4
v 0.5 0.9 0.4
v -0.6 0.9 0.3
v -0.5 0.9 0.3
v 0.5 0.9 0.3
v 0.6 0.9 0.3
v -0.6 0.9 -0.3
v -0.5 0.9 -0.3
v -0.4 0.9 -0.3
v 0.4 0.9 -0.3
v 0.5 0.9 -0.3
v 0.6 0.9 -0.3
v -0.5 0.9 -0.4
v -0.4 0.9 -0.4
v -0.3 0.9 -0.4
v 0.3 0.9 -0.4
v 0.4 0.9 -0.4
v 0.5 0.9 -0.4
v -0.4 0.9 -0.5
v -0.3 0.9 -0.5
v -0.2 0.9 -0.5
v 0.2 0.9 -0.5
v 0.3 0.9 -0.5
v 0.4 0.9 -0.5
v -0.2 0.9 -0.6
v 0.2 0.9 -0.6
v -0.4 1 0.6
v -0.1 1 0.6
v 0.1 1 0.6
v 0.4 1 0.6
v -0.4 1 0.5
v -0.1 1 0.5
v 0.1 1 0.5
v 0.4 1 0.5
v -0.5 1 0.4
v -0.4 1 0.4
v 0.4 1 0.4
v 0.5 1 0.4
v -0.4 1 -0.2
v -0.3 1 -0.2
v 0.3 1 -0.2
v 0.4 1 -0.2
v -0.5 1 -0.3
v -0.4 1 -0.3
v -0.3 1 -0.3
v 0.3 1 -0.3
v 0.4 1 -0.3
v 0.5 1 -0.3
v -0.4 1 -0.4
v -0.3 1 -0.4
v 0.3 1 -0.4
v 0.4 1 -0.4
v -0.3 1 -0.5
v 0.3 1 -0.5
v -0.4 1.1 0.5
v 0.4 1.1 0.5
v -0.4 1.1 -0.2
v -0.3 1.1 -0.2
v 0.3 1.1 -0.2
v 0.4 1.1 -0.2
v -0.3 1.1 -0.3
v 0.3 1.1 -0.3

# faces
f 6/1/1 4/1/1 3/1/1
f 8/1/1 2/1/1 1/1/1
f 10/1/1 6/1/1 5/1/1
f 11/1/1 4/1/1 6/1/1
f 11/1/1 6/1/1 10/1/1
f 12/1/1 8/1/1 7/1/1
f 13/1/1 11/1/1 10/1/1
f 13/1/1 12/1/1 11/1/1
f 13/1/1 10/1/1 9/1/1
f 14/1/1 8/1/1 12/1/1
f 14/1/1 12/1/1 13/1/1
f 14/1/1 2/1/1 8/1/1
f 20/2/1 16/2/1 15/2/1
f 21/1/1 17/1/1 16/1/1
f 21/2/1 16/2/1 20/2/1
f 22/1/1 19/1/1 18/1/1
f 23/2/1 20/2/1 15/2/1
f 24/2/1 20/2/1 23/2/1
f 25/2/1 20/2/1 24/2/1
f 26/1/1 23/1/1 22/1/1
f 26/2/1 24/2/1 23/2/1
f 27/2/1 24/2/1 26/2/1
f 28/2/1 24/2/1 27/2/1
f 29/2/1 24/2/1 28/2/1
f 30/2/1 20/2/1 25/2/1
f 31/2/1 20/2/1 30/2/1
f 32/2/1 28/2/1 27/2/1
f 32/1/1 27/1/1 26/1/1
f 33/2/1 28/2/1 32/2/1
f 34/2/1 30/2/1 25/2/1
f 35/2/1 30/2/1 34/2/1
f 36/1/1 22/1/1 18/1/1
f 36/1/1 26/1/1 22/1/1
f 36/1/1 32/1/1 26/1/1
f 37/1/1 32/1/1 36/1/1
f 38/1/1 32/1/1 37/1/1
f 39/1/1 17/1/1 21/1/1
f 40/1/1 17/1/1 39/1/1
f 41/1/1 38/1/1 37/1/1
f 41/1/1 39/1/1 38/1/1
f 42/1/1 39/1/1 41/1/1
f 46/2/1 44/2/1 43/2/1
f 47/2/1 44/2/1 46/2/1
f 48/2/1 44/2/1 47/2/1
f 50/2/1 46/2/1 45/2/1
f 51/2/1 46/2/1 50/2/1
f 52/2/1 49/2/1 48/2/1
f 53/2/1 49/2/1 52/2/1
f 54/4/1 51/4/1 50/4/1
f 55/4/1 51/4/1 54/4/1
f 59/1/1 53/1/1 52/1/1
f 60/1/1 53/1/1 59/1/1
f 61/1/1 57/1/1 56/1/1
f 62/1/1 57/1/1 61/1/1
f 63/1/1 57/1/1 62/1/1
f 65/1/1 59/1/1 58/1/1
f 66/1/1 59/1/1 65/1/1
f 67/1/1 64/1/1 63/1/1
f 67/1/1 63/1/1 62/1/1
f 68/1/1 64/1/1 67/1/1
f 73/2/1 70/2/1 69/2/1
f 74/2/1 70/2/1 73/2/1
f 75/2/1 72/2/1 71/2/1
f 76/2/1 72/2/1 75/2/1
f 79/1/1 78/1/1 77/1/1
f 80/1/1 78/1/1 79/1/1
f 85/1/1 82/1/1 81/1/1
f 86/1/1 82/1/1 85/1/1
f 87/1/1 84/1/1 83/1/1
f 88/1/1 84/1/1 87/1/1
f 91/1/1 90/1/1 89/1/1
f 92/1/1 90/1/1 91/1/1
f 95/1/1 94/1/1 93/1/1
f 96/1/1 94/1/1 95/1/1
f 99/1/1 98/1/1 97/1/1
f 100/1/1 98/1/1 99/1/1
f 103/1/1 102/1/1 101/1/1
f 104/1/1 102/1/1 103/1/1
f 107/1/1 106/1/1 105/1/1
f 108/1/1 107/1/1 105/1/1
f 109/1/1 107/1/1 108/1/1
f 112/1/1 111/1/1 110/1/1
f 113/1/1 111/1/1 112/1/1
f 114/1/2 115/1/2 116/1/2
f 116/1/2 115/1/2 117/1/2
f 118/1/2 119/1/2 120/1/2
f 118/1/2 120/1/2 121/1/2
f 121/1/2 120/1/2 122/1/2
f 123/1/2 124/1/2 125/1/2
f 125/1/2 124/1/2 126/1/2
f 127/1/2 128/1/2 129/1/2
f 129/1/2 128/1/2 130/1/2
f 131/1/2 132/1/2 133/1/2
f 133/1/2 132/1/2 134/1/2
f 135/1/2 136/1/2 137/1/2
f 137/1/2 136/1/2 138/1/2
f 139/2/2 140/2/2 143/2/2
f 143/2/2 140/2/2 144/2/2
f 141/2/2 142/2/2 145/2/2
f 145/2/2 142/2/2 146/2/2
f 147/1/2 148/1/2 149/1/2
f 149/1/2 148/1/2 150/1/2
f 151/1/2 152/1/2 155/1/2
f 155/1/2 152/1/2 156/1/2
f 153/1/2 154/1/2 157/1/2
f 157/1/2 154/1/2 158/1/2
f 159/2/2 160/2/2 162/2/2
f 162/2/2 160/2/2 163/2/2
f 163/2/2 160/2/2 164/2/2
f 161/2/2 162/2/2 166/2/2
f 166/2/2 162/2/2 167/2/2
f 164/2/2 165/2/2 168/2/2
f 168/2/2 165/2/2 169/2/2
f 166/4/2 167/4/2 170/4/2
f 170/4/2 167/4/2 171/4/2
f 168/1/2 169/1/2 175/1/2
f 175/1/2 169/1/2 176/1/2
f 172/1/2 173/1/2 177/1/2
f 177/1/2 173/1/2 178/1/2
f 178/1/2 173/1/2 179/1/2
f 174/1/2 175/1/2 181/1/2
f 181/1/2 175/1/2 182/1/2
f 179/1/2 180/1/2 183/1/2
f 178/1/2 179/1/2 183/1/2
f 183/1/2 180/1/2 184/1/2
f 185/2/2 186/2/2 190/2/2
f 186/1/2 187/1/2 191/1/2
f 190/2/2 186/2/2 191/2/2
f 188/1/2 189/1/2 192/1/2
f 185/2/2 190/2/2 193/2/2
f 193/2/2 190/2/2 194/2/2
f 194/2/2 190/2/2 195/2/2
f 192/1/2 193/1/2 196/1/2
f 193/2/2 194/2/2 196/2/2
f 196/2/2 194/2/2 197/2/2
f 197/2/2 194/2/2 198/2/2
f 198/2/2 194/2/2 199/2/2
f 195/2/2 190/2/2 200/2/2
f 200/2/2 190/2/2 201/2/2
f 197/2/2 198/2/2 202/2/2
f 196/1/2 197/1/2 202/1/2
f 202/2/2 198/2/2 203/2/2
f 195/2/2 200/2/2 204/2/2
f 204/2/2 200/2/2 205/2/2
f 188/1/2 192/1/2 206/1/2
f 192/1/2 196/1/2 206/1/2
f 196/1/2 202/1/2 206/1/2
f 206/1/2 202/1/2 207/1/2
f 207/1/2 202/1/2 208/1/2
f 191/1/2 187/1/2 209/1/2
f 209/1/2 187/1/2 210/1/2
f 207/1/2 208/1/2 211/1/2
f 208/1/2 209/1/2 211/1/2
f 211/1/2 209/1/2 212/1/2
f 215/1/2 216/1/2 218/1/2
f 213/1/2 214/1/2 220/1/2
f 217/1/2 218/1/2 222/1/2
f 218/1/2 216/1/2 223/1/2
f 222/1/2 218/1/2 223/1/2
f 219/1/2 220/1/2 224/1/2
f 222/1/2 223/1/2 225/1/2
f 223/1/2 224/1/2 225/1/2
f 221/1/2 222/1/2 225/1/2
f 224/1/2 220/1/2 226/1/2
f 225/1/2 224/1/2 226/1/2
f 220/1/2 214/1/2 226/1/2
f 229/1/3 228/1/3 227/1/3
f 230/1/3 228/1/3 229/1/3
f 231/1/3 228/1/3 230/1/3
f 233/1/3 232/1/3 231/1/3
f 233/1/3 231/1/3 230/1/3
f 234/1/3 232/1/3 233/1/3
f 235/1/3 232/1/3 234/1/3
f 236/1/3 232/1/3 235/1/3
f 237/1/3 232/1/3 236/1/3
f 238/1/3 232/1/3 237/1/3
f 242/1/3 240/1/3 239/1/3
f 244/1/3 242/1/3 241/1/3
f 246/1/3 244/1/3 243/1/3
f 247/1/3 240/1/3 242/1/3
f 247/1/3 242/1/3 244/1/3
f 247/1/3 244/1/3 246/1/3
f 248/1/3 240/1/3 247/1/3
f 249/1/3 246/1/3 245/1/3
f 249/1/3 247/1/3 246/1/3
f 250/1/3 247/1/3 249/1/3
f 257/2/3 252/2/3 251/2/3
f 258/4/3 253/4/3 252/4/3
f 258/2/3 252/2/3 257/2/3
f 259/4/3 253/4/3 258/4/3
f 262/2/3 257/2/3 256/2/3
f 262/2/3 258/2/3 257/2/3
f 262/5/3 260/5/3 259/5/3
f 262/5/3 259/5/3 258/5/3
f 263/3/3 261/3/3 260/3/3
f 263/5/3 260/5/3 262/5/3
f 264/3/3 261/3/3 263/3/3
f 266/2/3 263/2/3 262/2/3
f 266/2/3 265/2/3 264/2/3
f 266/2/3 264/2/3 263/2/3
f 267/1/3 255/1/3 254/1/3
f 268/2/3 266/2/3 262/2/3
f 268/1/3 267/1/3 266/1/3
f 269/1/3 255/1/3 267/1/3
f 269/1/3 267/1/3 268/1/3
f 270/2/3 268/2/3 262/2/3
f 270/2/3 262/2/3 256/2/3
f 271/2/3 268/2/3 270/2/3
f 272/2/3 268/2/3 271/2/3
f 273/2/3 268/2/3 272/2/3
f 274/2/3 270/2/3 256/2/3
f 275/2/3 270/2/3 274/2/3
f 276/5/3 271/5/3 270/5/3
f 276/2/3 270/2/3 275/2/3
f 277/5/3 271/5/3 276/5/3
f 278/3/3 272/3/3 271/3/3
f 278/5/3 271/5/3 277/5/3
f 279/3/3 272/3/3 278/3/3
f 280/2/3 276/2/3 275/2/3
f 281/4/3 277/4/3 276/4/3
f 281/2/3 276/2/3 280/2/3
f 282/4/3 277/4/3 281/4/3
f 283/1/3 255/1/3 269/1/3
f 284/1/3 255/1/3 283/1/3
f 290/2/3 286/2/3 285/2/3
f 291/2/3 286/2/3 290/2/3
f 292/2/3 286/2/3 291/2/3
f 293/1/3 288/1/3 287/1/3
f 294/1/3 288/1/3 293/1/3
f 295/2/3 290/2/3 289/2/3
f 296/2/3 290/2/3 295/2/3
f 299/2/3 298/2/3 297/2/3
f 300/2/3 298/2/3 299/2/3
f 305/2/3 301/2/3 300/2/3
f 305/2/3 302/2/3 301/2/3
f 306/2/3 302/2/3 305/2/3
f 307/1/3 304/1/3 303/1/3
f 308/1/3 304/1/3 307/1/3
f 311/1/3 310/1/3 309/1/3
f 312/1/3 310/1/3 311/1/3
f 315/1/3 314/1/3 313/1/3
f 316/1/3 314/1/3 315/1/3
f 319/1/3 318/1/3 317/1/3
f 320/1/3 318/1/3 319/1/3
f 323/1/3 322/1/3 321/1/3
f 324/1/3 322/1/3 323/1/3
f 327/1/3 326/1/3 325/1/3
f 328/1/3 326/1/3 327/1/3
f 331/1/3 330/1/3 329/1/3
f 332/1/3 330/1/3 331/1/3
f 335/1/3 334/1/3 333/1/3
f 336/1/3 334/1/3 335/1/3
f 339/1/3 338/1/3 337/1/3
f 340/1/3 338/1/3 339/1/3
f 343/1/3 342/1/3 341/1/3
f 344/1/3 342/1/3 343/1/3
f 347/1/3 346/1/3 345/1/3
f 348/1/3 346/1/3 347/1/3
f 349/1/4 350/1/4 351/1/4
f 351/1/4 350/1/4 352/1/4
f 353/1/4 354/1/4 355/1/4
f 355/1/4 354/1/4 356/1/4
f 357/1/4 358/1/4 359/1/4
f 359/1/4 358/1/4 360/1/4
f 361/1/4 362/1/4 363/1/4
f 363/1/4 362/1/4 364/1/4
f 365/1/4 366/1/4 367/1/4
f 367/1/4 366/1/4 368/1/4
f 369/1/4 370/1/4 371/1/4
f 371/1/4 370/1/4 372/1/4
f 373/1/4 374/1/4 375/1/4
f 375/1/4 374/1/4 376/1/4
f 376/1/4 377/1/4 378/1/4
f 378/1/4 377/1/4 379/1/4
f 380/1/4 381/1/4 382/1/4
f 382/1/4 381/1/4 383/1/4
f 384/1/4 385/1/4 387/1/4
f 387/1/4 385/1/4 388/1/4
f 386/1/4 387/1/4 389/1/4
f 389/1/4 387/1/4 390/1/4
f 391/1/4 392/1/4 394/1/4
f 394/1/4 392/1/4 395/1/4
f 395/1/4 392/1/4 396/1/4
f 393/2/4 394/2/4 398/2/4
f 398/2/4 394/2/4 399/2/4
f 396/1/4 397/1/4 400/1/4
f 400/1/4 397/1/4 401/1/4
f 402/2/4 403/2/4 406/2/4
f 406/2/4 403/2/4 407/2/4
f 404/1/4 405/1/4 409/1/4
f 409/1/4 405/1/4 410/1/4
f 407/1/4 408/1/4 411/1/4
f 408/1/4 409/1/4 411/1/4
f 411/1/4 409/1/4 412/1/4
f 413/2/4 414/2/4 417/2/4
f 414/1/4 415/1/4 418/1/4
f 417/2/4 414/2/4 418/2/4
f 418/1/4 415/1/4 419/1/4
f 419/1/4 415/1/4 420/1/4
f 416/2/4 417/2/4 422/2/4
f 417/1/4 418/1/4 422/1/4
f 422/1/4 418/1/4 423/1/4
f 420/1/4 421/1/4 424/1/4
f 419/1/4 420/1/4 424/1/4
f 424/1/4 421/1/4 425/1/4
f 416/2/4 422/2/4 426/2/4
f 425/1/4 421/1/4 429/1/4
f 416/2/4 426/2/4 430/2/4
f 426/1/4 427/1/4 431/1/4
f 430/2/4 426/2/4 431/2/4
f 431/1/4 427/1/4 432/1/4
f 428/1/4 429/1/4 433/1/4
f 429/1/4 421/1/4 434/1/4
f 433/1/4 429/1/4 434/1/4
f 434/1/4 421/1/4 435/1/4
f 431/2/4 432/2/4 436/2/4
f 432/1/4 433/1/4 437/1/4
f 436/2/4 432/2/4 437/2/4
f 433/1/4 434/1/4 437/1/4
f 437/1/4 434/1/4 438/1/4
f 439/1/4 440/1/4 442/1/4
f 442/1/4 440/1/4 443/1/4
f 441/1/4 442/1/4 445/1/4
f 443/1/4 444/1/4 445/1/4
f 442/1/4 443/1/4 445/1/4
f 445/1/4 444/1/4 446/1/4
f 446/1/4 444/1/4 447/1/4
f 447/1/4 444/1/4 448/1/4
f 446/1/4 447/1/4 449/1/4
f 449/1/4 447/1/4 450/1/4
f 454/2/5 452/2/5 451/2/5
f 455/2/5 452/2/5 454/2/5
f 457/2/5 454/2/5 453/2/5
f 457/2/5 456/2/5 455/2/5
f 457/2/5 455/2/5 454/2/5
f 458/2/5 456/2/5 457/2/5
f 459/2/5 456/2/5 458/2/5
f 460/2/5 456/2/5 459/2/5
f 461/2/5 459/2/5 458/2/5
f 462/2/5 459/2/5 461/2/5
f 468/2/5 464/2/5 463/2/5
f 469/2/5 464/2/5 468/2/5
f 470/2/5 466/2/5 465/2/5
f 471/2/5 466/2/5 470/2/5
f 473/2/5 468/2/5 467/2/5
f 474/2/5 468/2/5 473/2/5
f 475/2/5 472/2/5 471/2/5
f 476/2/5 472/2/5 475/2/5
f 477/1/5 474/1/5 473/1/5
f 478/1/5 474/1/5 477/1/5
f 481/1/5 476/1/5 475/1/5
f 482/1/5 476/1/5 481/1/5
f 483/2/5 479/2/5 478/2/5
f 484/2/5 479/2/5 483/2/5
f 487/2/5 481/2/5 480/2/5
f 488/2/5 481/2/5 487/2/5
f 489/1/5 486/1/5 485/1/5
f 490/1/5 486/1/5 489/1/5
f 495/1/5 492/1/5 491/1/5
f 496/1/5 492/1/5 495/1/5
f 497/1/5 494/1/5 493/1/5
f 498/1/5 494/1/5 497/1/5
f 503/1/5 500/1/5 499/1/5
f 504/1/5 500/1/5 503/1/5
f 505/1/5 502/1/5 501/1/5
f 506/1/5 502/1/5 505/1/5
f 511/1/5 508/1/5 507/1/5
f 512/1/5 508/1/5 511/1/5
f 513/1/5 510/1/5 509/1/5
f 514/1/5 510/1/5 513/1/5
f 520/1/5 516/1/5 515/1/5
f 521/1/5 516/1/5 520/1/5
f 522/1/5 518/1/5 517/1/5
f 523/1/5 518/1/5 522/1/5
f 525/1/5 520/1/5 519/1/5
f 526/1/5 520/1/5 525/1/5
f 527/1/5 524/1/5 523/1/5
f 528/1/5 524/1/5 527/1/5
f 533/1/5 530/1/5 529/1/5
f 534/1/5 530/1/5 533/1/5
f 535/1/5 532/1/5 531/1/5
f 536/1/5 532/1/5 535/1/5
f 541/1/5 538/1/5 537/1/5
f 542/1/5 538/1/5 541/1/5
f 543/1/5 540/1/5 539/1/5
f 544/1/5 540/1/5 543/1/5
f 549/1/5 546/1/5 545/1/5
f 550/1/5 546/1/5 549/1/5
f 551/1/5 548/1/5 547/1/5
f 552/1/5 548/1/5 551/1/5
f 557/1/5 554/1/5 553/1/5
f 558/1/5 554/1/5 557/1/5
f 559/1/5 556/1/5 555/1/5
f 560/1/5 556/1/5 559/1/5
f 565/1/5 562/1/5 561/1/5
f 566/1/5 562/1/5 565/1/5
f 567/1/5 564/1/5 563/1/5
f 568/1/5 564/1/5 567/1/5
f 573/1/5 570/1/5 569/1/5
f 574/1/5 570/1/5 573/1/5
f 575/1/5 572/1/5 571/1/5
f 576/1/5 572/1/5 575/1/5
f 581/1/5 578/1/5 577/1/5
f 582/1/5 578/1/5 581/1/5
f 583/1/5 580/1/5 579/1/5
f 584/1/5 580/1/5 583/1/5
f 585/1/6 586/1/6 589/1/6
f 589/1/6 586/1/6 590/1/6
f 587/1/6 588/1/6 591/1/6
f 591/1/6 588/1/6 592/1/6
f 593/1/6 594/1/6 597/1/6
f 597/1/6 594/1/6 598/1/6
f 595/1/6 596/1/6 599/1/6
f 599/1/6 596/1/6 600/1/6
f 601/1/6 602/1/6 605/1/6
f 605/1/6 602/1/6 606/1/6
f 603/1/6 604/1/6 609/1/6
f 609/1/6 604/1/6 610/1/6
f 606/1/6 607/1/6 611/1/6
f 611/1/6 607/1/6 612/1/6
f 608/1/6 609/1/6 615/1/6
f 615/1/6 609/1/6 616/1/6
f 612/1/6 613/1/6 617/1/6
f 617/1/6 613/1/6 618/1/6
f 614/1/6 615/1/6 621/1/6
f 621/1/6 615/1/6 622/1/6
f 619/1/6 620/1/6 623/1/6
f 623/1/6 620/1/6 624/1/6
f 625/1/6 626/1/6 629/1/6
f 629/1/6 626/1/6 630/1/6
f 627/1/6 628/1/6 631/1/6
f 631/1/6 628/1/6 632/1/6
f 633/1/6 634/1/6 637/1/6
f 635/1/6 636/1/6 640/1/6
f 637/1/6 638/1/6 641/1/6
f 633/1/6 637/1/6 641/1/6
f 641/1/6 638/1/6 642/1/6
f 642/1/6 638/1/6 643/1/6
f 639/1/6 640/1/6 644/1/6
f 640/1/6 636/1/6 645/1/6
f 644/1/6 640/1/6 645/1/6
f 645/1/6 636/1/6 646/1/6
f 642/1/6 643/1/6 647/1/6
f 643/1/6 644/1/6 647/1/6
f 644/1/6 645/1/6 647/1/6
f 647/1/6 645/1/6 648/1/6
f 648/1/6 645/1/6 649/1/6
f 649/1/6 645/1/6 650/1/6
f 648/1/6 649/1/6 651/1/6
f 651/1/6 649/1/6 652/1/6
f 653/1/6 654/1/6 655/1/6
f 655/1/6 654/1/6 656/1/6
f 656/1/6 654/1/6 657/1/6
f 657/1/6 654/1/6 658/1/6
f 656/1/6 657/1/6 659/1/6
f 659/1/6 657/1/6 660/1/6
